<svg width="16" height="16" viewBox="0 0 16 16" fill="none" xmlns="http://www.w3.org/2000/svg">
<path d="M15.0785 15.9572C15.5637 15.9572 15.9571 15.5637 15.9571 15.0784V0.915034C15.9571 0.429659 15.5637 0.0363312 15.0785 0.0363312H0.91508C0.429705 0.0363312 0.036377 0.429659 0.036377 0.915034V15.0784C0.036377 15.5637 0.429643 15.9572 0.91508 15.9572H15.0785Z" fill="#3C5A99"/>
<path d="M11.0214 15.9572V9.79176H13.0908L13.4007 7.38898H11.0214V5.85496C11.0214 5.1593 11.2146 4.68523 12.2121 4.68523L13.4845 4.68467V2.53561C13.2644 2.50632 12.5091 2.4409 11.6304 2.4409C9.79599 2.4409 8.54008 3.56066 8.54008 5.617V7.38898H6.46533V9.79176H8.54008V15.9572H11.0214Z" fill="white"/>
</svg>
